<svg xmlns="http://www.w3.org/2000/svg" viewBox="0 0 40.08 40.08">
    <defs>
        <style>.cls-9{fill:#fff;stroke:#000;stroke-miterlimit:10;stroke-width:0.08px;}.cls-10{fill:#4285f4;}.cls-2,.cls-3,.cls-4,.cls-11{fill-rule:evenodd;}.cls-12{fill:#34a853;}.cls-4{fill:#fbbc05;}.cls-5{fill:#ea4335;}.cls-6{fill:none;}</style>
    </defs>
    <title>Asset 3</title>
    <g id="Layer_2" data-name="Layer 2">
        <g id="Layer_1-2" data-name="Layer 1">
            <g id="Layer_1-2-2" data-name="Layer 1-2">
                <path class="cls-9" d="M40,36.91A3.13,3.13,0,0,1,36.91,40H3.16A3.14,3.14,0,0,1,0,36.91V3.16A3.12,3.12,0,0,1,3.16,0H36.91A3.14,3.14,0,0,1,40,3.16Z"/>
            </g>
            <g id="btn_google_light_normal" data-name="btn google light normal">
                <g id="logo_googleg_48dp" data-name="logo googleg 48dp">
                    <path id="Shape" class="cls-10" d="M28.75,20.28a10,10,0,0,0-.16-1.84H20.11v3.48H25a4.16,4.16,0,0,1-1.8,2.72V26.9h2.91a8.8,8.8,0,0,0,2.68-6.62Z"/>
                    <path class="cls-12" d="M20.11,29.08a8.62,8.62,0,0,0,6-2.18l-2.91-2.26a5.42,5.42,0,0,1-8.08-2.85h-3v2.33a9,9,0,0,0,8,5Z"/>
                    <path class="cls-4" d="M15.08,21.79a5.36,5.36,0,0,1,0-3.42V16h-3a9,9,0,0,0,0,8.08l3-2.33Z"/>
                    <path class="cls-5" d="M20.11,14.66A4.84,4.84,0,0,1,23.55,16l2.59-2.58a8.67,8.67,0,0,0-6-2.34,9,9,0,0,0-8,5l3,2.33a5.36,5.36,0,0,1,5-3.71Z"/>
                    <path class="cls-6" d="M11.11,11.08h18v18h-18Z"/></g></g></g></g></svg>