<svg xmlns="http://www.w3.org/2000/svg" viewBox="0 0 40 40">
    <defs>
        <style>.cls-3{fill:#ffe812;}</style>
    </defs>
    <title>kakao</title>
    <g id="Layer_2" data-name="Layer 2">
        <g id="Layer_1-2" data-name="Layer 1">
            <path class="cls-3" d="M40,36.87A3.13,3.13,0,0,1,36.87,40H3.12A3.13,3.13,0,0,1,0,36.87V3.12A3.12,3.12,0,0,1,3.12,0H36.87A3.13,3.13,0,0,1,40,3.12Z"/>
            <path d="M20,10.87c-5.84,0-10.57,3.73-10.57,8.33,0,3,2,5.59,5,7.06-.17.56-1.05,3.59-1.08,3.83,0,0,0,.18.09.25a.32.32,0,0,0,.26,0c.33,0,3.85-2.52,4.46-3a12.9,12.9,0,0,0,1.88.13c5.84,0,10.57-3.73,10.57-8.33S25.84,10.87,20,10.87Z"/>
        </g>
    </g>
</svg>